# xmcd
#
# Track frame offsets:
#	150
#	22801
#	38853
#	57490
#	76035
#	91496
#	107813
#	123413
#
# Disc length: 1956 seconds
#
# Revision: 2
# Processed by: cddbd v1.5.2PL0 Copyright (c) Steve Scherf et al.
# Submitted via: EZCDAudioConverter 8.0.2.1
#
DISCID=5b07a208
DTITLE=Đinh Mạnh Ninh - Vol 01. Con Đường Tôi
DYEAR=2011
DGENRE=R&B
TTITLE0=Những ô cửa sắc màu
TTITLE1=Lời yêu nào
TTITLE2=Hà Nội. HaNoi
TTITLE3=Dù có cách xa
TTITLE4=Cơn mưa rào
TTITLE5=Bài hát chia tay
TTITLE6=Bài hát chia tay (Dance Version)
TTITLE7=Bản tình ca cuối cùng
EXTD=
EXTT0=
EXTT1=
EXTT2=
EXTT3=
EXTT4=
EXTT5=
EXTT6=
EXTT7=
PLAYORDER=
